<svg width="489" height="432" viewBox="0 0 489 432" fill="none" xmlns="http://www.w3.org/2000/svg">
<path d="M485.377 425.014L344.757 236.077L326.223 262.042L424.624 393.961C426.161 396.023 424.686 398.95 422.109 398.95H333.96C332.939 398.95 331.982 398.455 331.396 397.621L263.72 301.523C262.954 300.439 262.962 298.99 263.736 297.91L472.481 6.94264C473.965 4.87525 472.481 2 469.933 2H313.64C312.66 2 311.737 2.45605 311.144 3.23494L246.034 88.7799C244.769 90.442 242.259 90.4231 241.016 88.7452L177.819 3.26968C177.228 2.47052 176.293 2 175.296 2H14.2437L159.891 203.981C160.676 205.068 160.677 206.535 159.894 207.625L3.5918 425.056C2.1066 427.123 3.58745 430 6.13828 430H166.435C167.455 430 168.413 429.505 168.998 428.672L224.12 350.504L219.974 344.551L224.171 350.43L224.204 350.478L240.382 329.048L243.194 325.323L317.023 428.688C317.611 429.512 318.562 430 319.575 430H482.86C485.434 430 486.912 427.076 485.377 425.014ZM261.622 116.286L322.99 33.1224C323.581 32.3233 324.517 31.8498 325.513 31.8498H411.324C413.887 31.8498 415.365 34.7526 413.853 36.8171L310.265 178.205C309.022 179.902 306.486 179.916 305.224 178.231L261.633 120.007C260.809 118.905 260.806 117.393 261.622 116.286ZM242.896 266.77L216.559 236.396L196.964 260.595L224.428 299.048L221.681 302.849L207.297 322.762L207.25 322.695L205.807 324.706L153.812 397.187C153.224 398.008 152.274 398.494 151.265 398.494H67.3814C64.8291 398.494 63.3483 395.613 64.8378 393.547L226.35 169.497L208.438 144.401L208.233 144.158L181.888 179.12C180.62 180.805 178.077 180.779 176.842 179.071L75.6291 39.0669C74.1352 37.0009 75.6146 34.1156 78.1698 34.1156H164.493C165.505 34.1156 166.453 34.602 167.039 35.4214L289.694 206.241C290.484 207.341 290.474 208.824 289.669 209.914L247.789 266.58C246.596 268.193 244.21 268.286 242.896 266.77Z" fill="#0F0F0F" stroke="#0F0F0F" stroke-width="4" stroke-miterlimit="10"/>
</svg>
