<svg width="79" height="70" viewBox="0 0 79 70" fill="none" xmlns="http://www.w3.org/2000/svg">
<path d="M77.6394 68.2078L55.2978 38.1899L52.3532 42.315L67.9869 63.2742C68.2312 63.6017 67.9968 64.0668 67.5874 64.0668H53.5824C53.4202 64.0668 53.2682 63.9882 53.175 63.8557L42.4227 48.5878C42.3012 48.4155 42.3023 48.1853 42.4253 48.0137L75.5904 1.78528C75.8262 1.45681 75.5904 1 75.1856 1H50.354C50.1983 1 50.0516 1.07246 49.9575 1.19621L39.6128 14.7875C39.4119 15.0515 39.0131 15.0485 38.8157 14.7819L28.775 1.20173C28.6811 1.07476 28.5326 1 28.3741 1H2.78639L25.9265 33.0904C26.0513 33.2631 26.0516 33.4962 25.927 33.6694L1.09402 68.2145C0.858058 68.543 1.09333 69 1.4986 69H26.9664C27.1283 69 27.2805 68.9213 27.3735 68.7891L36.1312 56.3698L35.4725 55.4239L36.1393 56.358L36.1446 56.3656L38.7149 52.9609L39.1617 52.3691L50.8915 68.7916C50.9849 68.9225 51.136 69 51.297 69H77.2394C77.6484 69 77.8832 68.5354 77.6394 68.2078ZM42.0894 19.1576L51.8395 5.94468C51.9334 5.81771 52.0821 5.7425 52.2404 5.7425H65.8738C66.2812 5.7425 66.516 6.20368 66.2757 6.53169L49.8177 28.9952C49.6203 29.2647 49.2173 29.2671 49.0169 28.9993L42.0913 19.7487C41.9603 19.5737 41.9598 19.3335 42.0894 19.1576ZM39.1144 43.0662L34.9299 38.2405L31.8167 42.0852L36.1801 48.1945L35.7437 48.7985L33.4583 51.9622L33.451 51.9516L33.2217 52.2711L24.9608 63.7867C24.8674 63.9171 24.7165 63.9944 24.5562 63.9944H11.2288C10.8233 63.9944 10.588 63.5366 10.8247 63.2084L36.4855 27.6116L33.6396 23.6245L33.6071 23.5859L29.4215 29.1405C29.2199 29.4083 28.816 29.4041 28.6197 29.1327L12.5392 6.88913C12.3019 6.5609 12.5369 6.10247 12.9429 6.10247H26.6577C26.8185 6.10247 26.9691 6.17976 27.0623 6.30995L46.5495 33.4495C46.675 33.6243 46.6734 33.8598 46.5456 34.033L39.8917 43.0361C39.7021 43.2924 39.3231 43.3071 39.1144 43.0662Z" fill="#F3F2F2" stroke="#F3F2F2" stroke-width="0.635514" stroke-miterlimit="10"/>
</svg>
